PathFileType	4	(X/Y/Z)	Patient4_TMGait_0pt4_03_left_07.trc.trc
DataRate	CameraRate	NumFrames	NumMarkers	Units	OrigDataRate	OrigDataStartFrame	OrigNumFrames
76.502732240437	76.502732240437	4	33	mm	76.502732240437	71	       141
Frame#	Time	Sacral			L.Shoulder			Chest			R.Shoulder			Neck			R.ASIS			L.ASIS			R.Thigh.Superior			R.Thigh.Lateral			R.Thigh.Inferior			R.Patella			L.Thigh.Superior			L.Thigh.Lateral			L.Thigh.Inferior			L.Patella			L.Shank.Superior			L.Shank.Lateral			L.Shank.Inferior			R.Shank.Superior			R.Shank.Lateral			R.Shank.Inferior			R.Heel			R.Midfoot.Superior			R.Midfoot.Lateral			R.Toe			L.Heel			L.Midfoot.Lateral			L.Midfoot.Superior			L.Toe			L.Elbow			L.Wrist			R.Elbow			R.Wrist			
		X1	Y1	Z1	X2	Y2	Z2	X3	Y3	Z3	X4	Y4	Z4	X5	Y5	Z5	X6	Y6	Z6	X7	Y7	Z7	X8	Y8	Z8	X9	Y9	Z9	X10	Y10	Z10	X11	Y11	Z11	X12	Y12	Z12	X13	Y13	Z13	X14	Y14	Z14	X15	Y15	Z15	X16	Y16	Z16	X17	Y17	Z17	X18	Y18	Z18	X19	Y19	Z19	X20	Y20	Z20	X21	Y21	Z21	X22	Y22	Z22	X23	Y23	Z23	X24	Y24	Z24	X25	Y25	Z25	X26	Y26	Z26	X27	Y27	Z27	X28	Y28	Z28	X29	Y29	Z29	X30	Y30	Z30	X31	Y31	Z31	X32	Y32	Z32	X33	Y33	Z33	

71	9.665000000000	830.387091306255	1001.068975618183	454.772146598761	1017.377997429179	1418.710381971868	248.186156928109	1108.353406713377	1361.665831716246	420.186472323857	1014.914185231984	1447.239947693007	583.583752636128	1008.319615056287	1493.068503630939	397.670271006813	1057.556863246064	945.413638523252	580.640379988501	1051.702048655029	962.274838885373	303.372142756201	1130.090171724056	765.155248903527	559.977946370898	1080.310289291650	645.802157847561	636.179597132386	1169.451359858542	604.526528587080	559.468576540559	1197.586454164802	521.438158631982	577.182903464444	1068.431032806407	738.320269706688	336.831265206084	962.880295225665	634.753109618203	269.154568983074	1029.658809570057	546.440441562410	334.136490539573	1017.635222851027	478.843181068761	343.164156788581	985.463886347090	409.658596821002	333.503697722654	885.189551297450	305.099400500644	279.283968193451	923.467806685564	189.336450117541	351.991006230756	1177.553648329219	432.619437513038	589.889690712657	1118.585115513600	325.484437958719	658.974567865580	1180.262049149271	233.511864764053	608.412709502729	1077.301862826624	51.641574341843	591.195260103745	1244.619672182783	118.791740828361	621.470006334941	1165.070185281444	46.928885389639	660.149933361144	1368.120079040407	78.402225092309	640.288878111013	783.668803093958	39.036983760470	391.535173576106	859.129772312779	35.487763119079	312.291517936387	942.489460012427	95.852470036864	341.852213732567	1071.155425660699	42.185632099621	315.740063432524	1057.747432846359	1071.960246451599	127.549443280256	1229.908815512027	873.127497479441	122.278853700558	884.056834409479	1143.542297298624	728.526724739399	891.921438382066	886.646213837081	778.615180046795	
72	9.678071428571	832.282351296052	999.572115981986	457.432873781212	1016.878801637182	1418.119426074290	251.487614753420	1108.297762103161	1361.365757507645	423.352220602573	1014.457916257888	1446.189938377353	586.901975793938	1007.776142898606	1492.320331518312	401.123220472316	1059.458759375633	944.158682611871	583.018230905651	1053.568646864704	961.903524019058	305.844388452415	1131.462739786876	762.538263378937	562.249723848203	1078.862047232040	642.625690589355	635.711418098469	1168.806477017401	601.830066828762	559.917835017712	1195.121617067364	517.766610101821	576.342062016897	1068.450778224905	736.978972982430	338.133202902131	961.374302380488	634.570729199899	270.605063496844	1027.250668591383	545.478901977779	335.167031978918	1014.709030096778	477.903878694539	344.146403307102	982.124517081494	409.026161338954	334.356275898484	881.062745482399	305.256240840329	279.993232410970	918.618690658565	188.943947173702	352.277574088415	1173.818376228078	428.349869145975	588.463359381175	1112.408501718217	321.667118892286	656.177583914501	1172.721977391935	229.007666625794	605.368033335302	1066.291752835182	49.657508859379	586.946228639833	1234.540528502073	113.894888179010	617.453049595056	1153.590976625367	43.975164055690	656.488517033485	1357.431335401265	71.293361276773	637.389732809352	778.398129639481	38.922815694362	391.572054853477	853.840050381811	35.432556342595	312.331196573197	937.166027974082	95.779684097611	341.961341497164	1065.855894184682	42.109128076036	315.761258203573	1055.949138340209	1070.637377691144	131.836250663761	1227.979000777298	871.605184330707	126.748361746780	884.996446679680	1141.405436502784	730.850761482282	895.396835032771	884.092440217283	778.828248134739	
73	9.691142857143	834.293688509153	998.041232725741	460.201345566227	1016.410049505224	1417.508946882613	255.013499184852	1108.372169788223	1361.052456654925	426.698511589688	1014.193624805395	1445.081776376964	590.483014324856	1007.314816603507	1491.555311310215	404.820918359071	1061.496333062848	942.876400784950	585.412312995307	1055.437961167877	961.442498551032	308.413395318785	1132.758173415774	759.732019177100	564.392717849502	1077.356206553289	639.589313872310	635.263561295913	1167.881675015613	599.074062656545	560.172199588230	1192.396798169215	514.062290505693	575.325040718568	1068.741865770428	735.633676036376	339.321545304122	960.072494647283	634.335955437326	272.154119677972	1025.197926025307	544.481750759178	336.213426482784	1012.206951369909	476.841769945652	345.153341847555	979.077851860111	408.314164620031	335.274190328004	877.098310876429	305.442701636697	280.806070748650	913.861344030908	188.520243161083	352.603398676174	1169.927516134586	424.176700213521	587.040216600887	1106.340453546765	317.952967974047	653.640185387868	1165.257252093674	224.641702319978	602.465684109219	1055.490416339062	47.744352125726	583.253349117221	1224.552558402781	109.429995365450	613.578637046159	1142.416813935512	41.427149696465	653.297511074313	1346.999179674898	64.809268447115	634.605479489359	773.124643835681	38.818928543657	391.622929583094	848.557448284799	35.382768254632	312.398047827723	931.858233814006	95.723666315051	342.088187319451	1060.574610336731	42.002936738951	315.766473155395	1053.798728187132	1069.204982570470	136.382132767154	1225.462734144988	869.766856668544	131.336613544963	886.616040794470	1138.943921536222	733.458748384357	899.962883976355	881.227755547238	779.145727310147	
74	9.704214285714	836.323146982433	996.564720195247	463.017163954836	1016.020287132692	1416.933318917958	258.740245952395	1108.597789197158	1360.749995456697	430.206854080616	1014.157851799379	1443.965170208168	594.301516380194	1006.992052286957	1490.822773417065	408.738036632551	1063.580383668631	941.639193777874	587.810529324135	1057.214233393190	960.893582678483	311.069487694452	1133.923806460665	756.903256404441	566.353455803872	1075.922346957685	636.872772347627	634.946229347486	1166.723653326848	596.425695745099	560.262450158726	1189.550684983218	510.549738097370	574.244117080178	1069.304940117994	734.339745848202	340.500692474291	959.087225913608	634.033975563189	273.832307459130	1023.636824177097	543.463359495580	337.356413180638	1010.281433147474	475.639800364767	346.229825286359	976.433062566821	407.517843382848	336.295193438498	873.386211127676	305.688015417428	281.749161057610	909.241794424829	188.087161353495	352.991883740689	1166.093725522834	420.330151780183	585.735318774759	1100.746336870120	314.545396543376	651.564956227879	1158.245420003974	220.656422436793	599.871112880341	1045.418944163978	46.016546135733	580.290631286788	1215.128875529531	105.638315888867	610.090046172856	1132.086923475348	39.402731432015	650.721117756436	1337.311162031185	59.323239197921	632.077763899137	767.849863134613	38.780997857709	391.687319036129	843.288439995851	35.361382759949	312.495442175397	926.590804526573	95.695307273154	342.230517491638	1055.322455366239	41.858776463420	315.751608804154	1051.307966614909	1067.722201677080	141.174046896000	1222.345056982382	867.658591211288	136.004992293274	888.938377352473	1136.228786502276	736.328099935197	905.568459490285	878.147171971159	779.602829481176	
